# xmcd
#
# Track frame offsets:
#	150
#	21954
#	46768
#	118176
#	133018
#	152475
#	178563
# Disc length: 2805 seconds
# Revision: 1
# Processed by: cddbd v1.5.1PL2 Copyright (c) Steve Scherf et al.
#
# Submitted via: libkcddb 0.21
#
DISCID=530af307
DTITLE=Live in Reno, NV - 08.13.2005 - D2 - Los Lonely Boys
DYEAR=2005
DGENRE=
TTITLE0=Real Emotions
TTITLE1=Guitar Intro
TTITLE2=Onda
TTITLE3=More Than Love
TTITLE4=Sweet Love
TTITLE5=Gonna Do It My Way
TTITLE6=Heaven
EXTD=
EXTT0=
EXTT1=
EXTT2=
EXTT3=
EXTT4=
EXTT5=
EXTT6=
PLAYORDER=
